<svg xmlns="http://www.w3.org/2000/svg" width="24" height="24" viewBox="0 0 24 24">
  <defs>
    <!-- UI icons -->

    <symbol id="plus">
      <path
        d="M13.000006,11 L19.5,11 C20.0522847,11 20.5,11.4477153 20.5,12 C20.5,12.5522847 20.0522847,13 19.5,13 L13.000006,13 L13.000006,19.500084 C13.000006,20.0523464 12.5523089,20.5000435 12.0000465,20.5000435 C12.000032,20.5000435 12.0000175,20.5000435 12.000003,20.5000435 C11.4477096,20.5000195 11,20.0522904 11,19.499997 L11,13 L4.5,13 C3.94771525,13 3.5,12.5522847 3.5,12 C3.5,11.4477153 3.94771525,11 4.5,11 L11,11 L11,4.50000301 C11,3.9477166 11.4477166,3.5 12.000003,3.5 C12.5522894,3.5 13.000006,3.9477166 13.000006,4.50000301 L13.000006,11 Z"
      />
    </symbol>

    <symbol id="minus">
      <path
        d="M20.1 11.1H3.9a.9.9 0 0 0 0 1.7999l7.2-.0009h1.8l7.2.0009a.9.9 0 0 0 0-1.7999Z"
      />
    </symbol>

    <symbol id="download">
      <path
        clip-rule="evenodd"
        d="M12.002 2a.9.9 0 0 1 .9.9v11.002l4.562-4.631a.9.9 0 1 1 1.283 1.263l-6.104 6.195a.9.9 0 0 1-1.284-.001l-6.09-6.206a.9.9 0 1 1 1.286-1.26l4.547 4.633V2.9a.9.9 0 0 1 .9-.9Zm-8 18.1a.9.9 0 0 1 .9-.9h14.2a.9.9 0 1 1 0 1.8h-14.2a.9.9 0 0 1-.9-.9Z"
        fill-rule="evenodd"
      />
    </symbol>

    <symbol id="training" viewBox="0 0 20 20">
      <path
        d="M12.6984 1.55921C11.715 -0.45575 8.93659 -0.534759 7.84566 1.42121L7.70715 1.66956C7.47303 2.08931 7.61537 2.62403 8.02507 2.86388C8.43476 3.10374 8.95667 2.95791 9.19078 2.53816L9.3293 2.28981C9.7431 1.54789 10.797 1.57786 11.17 2.34215L13.8554 7.84472C14.0664 8.27713 14.5796 8.4524 15.0016 8.23619C15.4237 8.01999 15.5948 7.49419 15.3837 7.06178L12.6984 1.55921Z"/>
      <path
        clip-rule="evenodd"
        d="M17.757 11.9249C17.546 11.4925 17.0328 11.3172 16.6108 11.5334C16.1887 11.7496 16.0176 12.2754 16.2287 12.7078L16.6636 13.599H12.8589L18.9795 8.11202C19.3346 7.79367 19.3706 7.24065 19.0598 6.87683C18.7491 6.513 18.2093 6.47613 17.8542 6.79448L10.2639 13.599H2.87868C2.21114 13.599 1.59828 13.977 1.28594 14.5815L0.625439 15.8597C-0.345248 17.7382 0.98392 20 3.05854 20H17.2434C19.29 20 20.621 17.7934 19.7058 15.918L17.757 11.9249ZM17.4675 15.3497C17.4842 15.3497 17.5008 15.3492 17.5173 15.3482L18.1774 16.7009C18.5246 17.4123 18.0197 18.2493 17.2434 18.2493H3.05854C2.27161 18.2493 1.76745 17.3914 2.13564 16.6788L2.79614 15.4006C2.81233 15.3693 2.84409 15.3497 2.87868 15.3497H17.4675Z"
        fill-rule="evenodd"
      />
      <path
        clip-rule="evenodd"
        d="M5.13309 3.12216C5.41729 2.93157 5.78471 2.93157 6.06891 3.12216L10.8155 6.30527C11.0669 6.47383 11.2134 6.76525 11.2013 7.07278C11.1893 7.38031 11.0205 7.65877 10.7567 7.80615L8.74758 8.92895C8.80016 9.04357 8.82869 9.17034 8.82869 9.30123V10.4823C8.82869 10.8102 8.64974 11.1107 8.36506 11.2607L5.99175 12.5112C5.74652 12.6404 5.45548 12.6404 5.21025 12.5112L2.83694 11.2607C2.55226 11.1107 2.37331 10.8102 2.37331 10.4823V9.30123C2.37331 9.17034 2.40184 9.04357 2.45442 8.92895L0.445266 7.80615C0.181538 7.65877 0.0127352 7.38031 0.00068945 7.07278C-0.0113563 6.76525 0.135125 6.47383 0.386477 6.30527L5.13309 3.12216ZM2.51636 6.96935L5.601 8.69317L8.68564 6.96935L5.601 4.90077L2.51636 6.96935Z"
        fill-rule="evenodd"
      />
    </symbol>

    <symbol id="chong">
      <path
        clip-rule="evenodd"
        d="M11.7135 0.0898559C11.8835 -0.029952 12.1165 -0.029952 12.2865 0.0898559L23.8065 8.20587C23.9725 8.32285 24.0407 8.52743 23.9756 8.71346C23.9106 8.8995 23.7269 9.0251 23.52 9.0251H0.48003C0.273082 9.0251 0.0894329 8.8995 0.0243704 8.71346C-0.0406922 8.52743 0.0274818 8.32285 0.19352 8.20587L11.7135 0.0898559ZM1.92937 8.11601H22.0706L12 1.02109L1.92937 8.11601ZM4.66911 10.9115C4.93421 10.9115 5.14911 11.115 5.14911 11.3661V12.8013C5.14911 14.7944 6.20961 16.6533 7.96971 17.7454L8.58062 18.1245C10.6572 19.413 13.3428 19.413 15.4194 18.1245L16.0303 17.7454C17.7904 16.6533 18.8509 14.7944 18.8509 12.8013V11.3661C18.8509 11.115 19.0658 10.9115 19.3309 10.9115C19.596 10.9115 19.8109 11.115 19.8109 11.3661V12.8013C19.8109 15.1009 18.5873 17.2456 16.5564 18.5058L15.9455 18.8849C13.5494 20.3717 10.4506 20.3717 8.05447 18.8849L7.44357 18.5058C5.41267 17.2456 4.18911 15.1009 4.18911 12.8013V11.3661C4.18911 11.115 4.40401 10.9115 4.66911 10.9115ZM13.3166 12.9221L16.8281 11.9302L17.1025 12.8013L13.5911 13.7933L13.3166 12.9221ZM10.3904 13.7933L6.879 12.8013L7.15343 11.9302L10.6649 12.9221L10.3904 13.7933Z"
        fill-rule="evenodd"
      />
    </symbol>

    <symbol id="share">
      <path
        clip-rule="evenodd"
        d="M13.4691 4.30613C13.8762 3.89006 14.3618 3.55888 14.8978 3.33174C15.4338 3.10459 16.0095 2.98601 16.5916 2.98284C17.1736 2.97968 17.7506 3.092 18.289 3.3133C18.8274 3.5346 19.3166 3.86048 19.7282 4.27209C20.1398 4.68371 20.4657 5.17287 20.687 5.71127C20.9083 6.24967 21.0206 6.82661 21.0174 7.40871C21.0143 7.99081 20.8957 8.5665 20.6685 9.10246C20.4414 9.63843 20.1102 10.124 19.6941 10.5311L18.6221 11.6031C18.5385 11.6867 18.4392 11.753 18.3299 11.7982C18.2206 11.8434 18.1035 11.8667 17.9853 11.8666C17.867 11.8666 17.7499 11.8432 17.6407 11.7979C17.5315 11.7526 17.4322 11.6863 17.3486 11.6026C17.265 11.519 17.1988 11.4197 17.1535 11.3104C17.1083 11.2011 17.0851 11.084 17.0851 10.9658C17.0852 10.7269 17.1802 10.4979 17.3491 10.3291L18.4201 9.25813C18.6617 9.01663 18.8533 8.72991 18.9841 8.41435C19.1149 8.09879 19.1822 7.76056 19.1822 7.41898C19.1823 7.0774 19.115 6.73916 18.9844 6.42356C18.8537 6.10796 18.6621 5.82119 18.4206 5.57963C18.1791 5.33806 17.8924 5.14643 17.5769 5.01567C17.2613 4.88491 16.9231 4.81758 16.5815 4.81754C16.2399 4.81749 15.9017 4.88472 15.5861 5.0154C15.2705 5.14607 14.9837 5.33763 14.7421 5.57913L11.2051 9.11613C10.9635 9.35766 10.7719 9.64444 10.6411 9.96006C10.5103 10.2757 10.443 10.614 10.443 10.9556C10.443 11.2973 10.5103 11.6356 10.6411 11.9512C10.7719 12.2668 10.9635 12.5536 11.2051 12.7951C11.3739 12.9641 11.4687 13.1932 11.4686 13.432C11.4685 13.6708 11.3736 13.8998 11.2046 14.0686C11.0357 14.2374 10.8066 14.3322 10.5678 14.3321C10.329 14.332 10.0999 14.2371 9.93114 14.0681C9.10571 13.2426 8.64201 12.123 8.64201 10.9556C8.64201 9.78823 9.10571 8.66865 9.93114 7.84313L13.4681 4.30613H13.4691ZM12.7611 9.96613C12.8447 9.88252 12.9439 9.8162 13.0532 9.77096C13.1624 9.72571 13.2794 9.70242 13.3976 9.70242C13.5159 9.70242 13.6329 9.72571 13.7421 9.77096C13.8513 9.8162 13.9506 9.88252 14.0341 9.96613C14.8593 10.7916 15.3228 11.911 15.3228 13.0781C15.3228 14.2453 14.8593 15.3646 14.0341 16.1901L10.4971 19.7281C9.67152 20.5536 8.55179 21.0173 7.38428 21.0172C6.21678 21.0171 5.09712 20.5532 4.27164 19.7276C3.44615 18.902 2.98245 17.7823 2.98254 16.6148C2.98264 15.4473 3.44652 14.3276 4.27214 13.5021L5.39414 12.3801C5.56308 12.2113 5.79216 12.1165 6.03099 12.1166C6.26982 12.1167 6.49883 12.2117 6.66764 12.3806C6.83645 12.5496 6.93123 12.7787 6.93114 13.0175C6.93104 13.2563 6.83608 13.4853 6.66714 13.6541L5.54514 14.7761C5.30364 15.0177 5.11208 15.3045 4.98141 15.6201C4.85073 15.9357 4.7835 16.2739 4.78354 16.6155C4.78359 16.9571 4.85092 17.2953 4.98168 17.6108C5.11244 17.9264 5.30407 18.2131 5.54564 18.4546C5.7872 18.6961 6.07397 18.8877 6.38957 19.0184C6.70517 19.149 7.04341 19.2163 7.38499 19.2162C7.72657 19.2162 8.0648 19.1488 8.38036 19.0181C8.69592 18.8873 8.98264 18.6957 9.22414 18.4541L12.7611 14.9171C13.2488 14.4294 13.5228 13.7679 13.5228 13.0781C13.5228 12.3884 13.2488 11.7269 12.7611 11.2391C12.6774 11.1555 12.6109 11.0562 12.5656 10.9469C12.5203 10.8376 12.4969 10.7205 12.4969 10.6021C12.4969 10.4838 12.5203 10.3666 12.5656 10.2573C12.6109 10.148 12.6774 10.0487 12.7611 9.96513V9.96613Z"
        fill-rule="evenodd"
      />
    </symbol>

    <symbol id="library">
      <path
        clip-rule="evenodd"
        d="M12 5.05777C14.028 3.85077 16.172 3.42877 18.96 3.50977L19.087 3.51277C19.667 3.52877 20.229 3.54277 20.733 3.81277C21.158 4.04077 21.533 4.42577 21.748 4.85777C21.896 5.15477 21.952 5.45377 21.977 5.74777C22 6.01777 22 6.33777 22 6.69377V14.7508C22 15.3208 22 15.7998 21.97 16.1868C21.94 16.5868 21.874 16.9798 21.688 17.3468C21.401 17.9158 21.003 18.3168 20.437 18.6108C20.062 18.8058 19.64 18.8738 19.217 18.9078C18.795 18.9408 18.262 18.9478 17.614 18.9548H17.581C15.566 18.9778 14.064 19.3388 12.627 20.2568C12.4574 20.416 12.2326 20.5031 12 20.4998C11.7674 20.5029 11.5427 20.4158 11.373 20.2568C9.936 19.3388 8.434 18.9768 6.419 18.9548H6.386C5.738 18.9468 5.206 18.9408 4.783 18.9078C4.359 18.8738 3.938 18.8058 3.563 18.6108C3.01816 18.3383 2.57844 17.8936 2.312 17.3458C2.126 16.9788 2.06 16.5858 2.029 16.1868C2 15.7998 2 15.3218 2 14.7508V6.69477C2 6.33977 2 6.01877 2.023 5.74877C2.048 5.45477 2.103 5.15577 2.253 4.85877C2.47826 4.41643 2.83163 4.05225 3.267 3.81377C3.771 3.54377 4.334 3.52977 4.913 3.51377L5.041 3.51077C7.827 3.43077 9.971 3.85077 12 5.05777ZM11.088 18.0608C9.674 17.4258 8.176 17.1748 6.44 17.1558C5.75 17.1478 5.28 17.1418 4.927 17.1138C4.569 17.0848 4.441 17.0388 4.393 17.0138C4.1827 16.9152 4.01432 16.7451 3.918 16.5338C3.888 16.4758 3.848 16.3558 3.824 16.0508C3.801 15.7398 3.8 15.3308 3.8 14.7168V6.72677C3.8 6.32777 3.8 6.08477 3.816 5.89977C3.831 5.72977 3.854 5.67977 3.863 5.65977C3.9223 5.55151 4.01015 5.46158 4.117 5.39977C4.199 5.35577 4.299 5.33077 5.093 5.30777C7.633 5.23477 9.42 5.61477 11.088 6.60877V18.0608ZM12.912 18.0608C14.326 17.4258 15.824 17.1748 17.56 17.1558C18.25 17.1478 18.72 17.1418 19.073 17.1138C19.431 17.0848 19.559 17.0388 19.607 17.0138C19.8173 16.9152 19.9857 16.7451 20.082 16.5338C20.112 16.4758 20.152 16.3558 20.176 16.0508C20.199 15.7398 20.2 15.3308 20.2 14.7168V6.72677C20.2 6.32777 20.2 6.08477 20.183 5.89977C20.169 5.72977 20.146 5.67977 20.137 5.65977C20.0777 5.55151 19.9898 5.46158 19.883 5.39977C19.801 5.35577 19.701 5.33077 18.907 5.30777C16.367 5.23477 14.58 5.61477 12.912 6.60877V18.0608Z"
        fill-rule="evenodd"
      />
    </symbol>

    <symbol id="settings">
      <path
        d="M12.7418 2.00091C13.9782 2.04011 14.7822 2.73298 15.2061 4.03914L15.2732 4.26251L15.3252 4.46249C15.3441 4.5395 15.3676 4.62151 15.3952 4.70667L15.4539 4.87282L15.4887 4.89055L15.5593 4.86677L15.6961 4.8134L15.8557 4.74269C17.3029 4.05643 18.4162 4.1838 19.3227 5.19851L19.4509 5.34951L20.2905 6.40935C21.0387 7.41271 21.0159 8.48517 20.2862 9.64271L20.158 9.83643L20.0381 10.0034C19.9903 10.0682 19.9414 10.1401 19.8929 10.2172L19.8203 10.3368L19.7859 10.3966L19.79 10.4175L19.8839 10.4806L20.0134 10.5602L20.1704 10.6471C21.5924 11.3862 22.1792 12.3582 21.9528 13.7084L21.9149 13.9039L21.665 15.0072C21.5032 15.7213 21.3761 16.0594 20.876 16.5231C20.3902 16.9737 19.836 17.1596 19.1035 17.2214L18.8784 17.2364L18.6754 17.2428C18.5966 17.2443 18.5119 17.2493 18.4234 17.2578L18.2382 17.2801L18.2516 17.4285L18.2653 17.5284L18.2984 17.7147C18.6292 19.3055 18.257 20.3817 17.0824 21.0531L16.9091 21.1463L15.7063 21.7412C14.5782 22.258 13.5574 21.9942 12.6142 21.0095L12.4577 20.8388L12.3249 20.6823C12.2732 20.6195 12.2148 20.5542 12.1512 20.488L12.052 20.3881L12.0012 20.3402L11.9073 20.4311L11.7998 20.5437L11.6794 20.6823C10.7044 21.8642 9.67536 22.2885 8.42808 21.7944L8.2484 21.7176L7.17214 21.1848L6.85243 21.0181C6.36511 20.7471 6.09165 20.4875 5.82441 19.9127C5.54308 19.3076 5.52417 18.7132 5.66055 17.9492L5.70602 17.7147C5.72231 17.6365 5.73655 17.5516 5.74845 17.462L5.76721 17.2832L5.76311 17.279L5.65698 17.2645L5.50703 17.2509L5.32902 17.2428C3.73287 17.2134 2.78707 16.6019 2.40897 15.2851L2.35881 15.0922L2.06033 13.7647C1.81971 12.5288 2.30166 11.575 3.45581 10.8605L3.65438 10.7436L3.834 10.6471C3.9044 10.6105 3.97858 10.5681 4.05489 10.5208L4.21332 10.4154L4.21742 10.3956L4.15339 10.2831L4.07067 10.1526L3.96627 10.0034C3.00633 8.70418 2.89718 7.56853 3.68315 6.45436L3.80152 6.29533L4.64477 5.2385C5.45277 4.28448 6.48741 4.0841 7.75078 4.57053L7.96345 4.65796L8.14872 4.74269C8.21843 4.77574 8.29469 4.80829 8.37586 4.83967L8.51465 4.8895L8.5515 4.87178L8.58592 4.77936L8.63207 4.63553L8.67919 4.46249C9.0468 2.96477 9.78909 2.12395 11.125 2.01116L11.3199 2L12.7418 2.00091ZM12.6844 3.87673H11.3199L11.1772 3.88737C10.8844 3.92621 10.6932 4.08719 10.5091 4.7545L10.4667 4.91765L10.4089 5.13219C10.3015 5.49973 10.1391 5.91332 9.92993 6.31488C9.51583 6.46602 9.12231 6.66118 8.75544 6.89678C8.32375 6.80764 7.91213 6.6769 7.56863 6.53229L7.21034 6.37076C6.95556 6.2596 6.76471 6.20289 6.61348 6.18909L6.52731 6.18586C6.34549 6.18973 6.22545 6.26579 6.10948 6.38667L6.03992 6.46437L5.23214 7.47805L5.13519 7.60876C4.94746 7.88436 4.91937 8.13009 5.33466 8.73L5.56825 9.05928C5.78516 9.38221 6.00266 9.78025 6.18025 10.2076C6.04778 10.6083 5.95404 11.0271 5.90381 11.4602C5.56205 11.7617 5.19787 12.0198 4.8662 12.2118L4.51585 12.4027C3.8844 12.7564 3.80387 12.9898 3.85399 13.3213L3.86769 13.3997L4.15461 14.6721L4.19604 14.8304C4.29368 15.1507 4.46651 15.3246 5.18631 15.3606L5.58281 15.3757C5.96253 15.4001 6.39963 15.4694 6.83481 15.5883C7.06489 15.9522 7.33102 16.2902 7.62931 16.5969C7.64631 17.146 7.59646 17.6813 7.50855 18.1038C7.30269 19.0933 7.49433 19.2527 7.90111 19.4586L9.05381 20.0296C9.17595 20.0856 9.28511 20.1232 9.39855 20.1218L9.46726 20.116C9.6526 20.0871 9.85775 19.9473 10.1534 19.6107L10.4173 19.3032C10.6801 19.0125 11.0157 18.7043 11.3882 18.4305L11.6933 18.4536L12.0022 18.4614L12.3111 18.4534L12.6164 18.4297C12.9887 18.7041 13.3243 19.0125 13.5871 19.3032L13.851 19.6107C14.1836 19.9894 14.4016 20.119 14.6058 20.1218L14.6735 20.1181C14.7335 20.111 14.7931 20.0939 14.8553 20.07L14.9506 20.0296L16.1033 19.4586L16.2454 19.3819C16.5518 19.2 16.6759 18.9696 16.4959 18.1038C16.4079 17.6813 16.3581 17.146 16.3763 16.597C16.6734 16.2902 16.9395 15.9522 17.1698 15.5865C17.6054 15.469 18.0423 15.4 18.4217 15.3757L18.8181 15.3606C19.6486 15.3191 19.7509 15.094 19.8498 14.6721L20.1195 13.4821C20.2123 13.0588 20.2171 12.8108 19.4886 12.4027L19.1382 12.2118C18.8064 12.0197 18.4423 11.7614 18.1008 11.4595C18.0504 11.0271 17.9566 10.6083 17.8236 10.2068C18.0016 9.7801 18.2192 9.38219 18.4362 9.05928L18.6697 8.73C19.0851 8.13009 19.0569 7.88436 18.8692 7.60876L18.8232 7.54446L18.0176 6.52891C17.8734 6.35021 17.7524 6.22228 17.5549 6.19239L17.477 6.18586C17.3134 6.18238 17.0998 6.23736 16.794 6.37076L16.4359 6.53222C16.0927 6.67671 15.6814 6.80719 15.2501 6.89514C14.8818 6.66098 14.4875 6.46545 14.0724 6.31583C13.8733 5.92958 13.7159 5.53284 13.6086 5.17652L13.4924 4.74428C13.2961 4.03801 13.0909 3.90559 12.7624 3.88076L12.6844 3.87673ZM12.0022 8.24363C14.1505 8.24363 15.892 10.0175 15.892 12.2056C15.892 14.3938 14.1505 16.1676 12.0022 16.1676C9.85389 16.1676 8.11236 14.3938 8.11236 12.2056C8.11236 10.0175 9.85389 8.24363 12.0022 8.24363ZM12.0022 10.1204C10.8715 10.1204 9.95491 11.0539 9.95491 12.2056C9.95491 13.3573 10.8715 14.2909 12.0022 14.2909C13.1329 14.2909 14.0495 13.3573 14.0495 12.2056C14.0495 11.0539 13.1329 10.1204 12.0022 10.1204Z"/>
    </symbol>


    <!-- NUMBERS icons -->

    <symbol id="number-0" viewBox="0 0 35 48">
      <path
        d="M17.5159 48C12.0058 48 7.7036 45.8878 4.60945 41.6634C1.53648 37.4389 0 31.5353 0 23.9525C0 16.4119 1.54708 10.5399 4.64124 6.33663C7.75659 2.11221 12.0481 0 17.5159 0C22.9837 0 27.2646 2.11221 30.3588 6.33663C33.4529 10.5611 35 16.4541 35 24.0158C35 31.5564 33.4529 37.4389 30.3588 41.6634C27.2858 45.8878 23.0048 48 17.5159 48ZM10.713 36.7842C12.3236 39.7413 14.5913 41.2198 17.5159 41.2198C20.4405 41.2198 22.6975 39.7413 24.287 36.7842C25.8977 33.8059 26.703 29.5287 26.703 23.9525C26.703 18.4185 25.8977 14.1835 24.287 11.2475C22.6764 8.29043 20.4193 6.81188 17.5159 6.81188C14.6125 6.81188 12.3448 8.29043 10.713 11.2475C9.10233 14.2046 8.297 18.4396 8.297 23.9525C8.297 29.5287 9.10233 33.8059 10.713 36.7842Z"/>
    </symbol>

    <symbol id="number-1" viewBox="0 0 35 48">
      <path d="M29.0497 0H17.9425L8.38668 16H15.8539L21.2075 6.98545H21.6347L21.5126 48H29.0497V0Z"/>
    </symbol>

    <symbol id="number-2" viewBox="0 0 35 48">
      <path
        d="M0 14.8641C0 10.4936 1.60761 6.9236 4.82283 4.15416C8.06102 1.38472 12.2293 0 17.3278 0C22.2425 0 26.2844 1.26572 29.4537 3.79716C32.646 6.3286 34.2421 9.5524 34.2421 13.4686C34.2421 15.9784 33.4383 18.4665 31.8307 20.9331C30.2231 23.378 27.3064 26.5693 23.0807 30.5071L12.6772 40.3408V40.8925H35V48H0.482283V42.1907L17.0522 26.2231C20.4511 22.9777 22.7133 20.5436 23.8386 18.9209C24.9639 17.2765 25.5266 15.6322 25.5266 13.9878C25.5266 11.9324 24.7228 10.2339 23.1152 8.8925C21.5305 7.55105 19.5095 6.88032 17.0522 6.88032C14.457 6.88032 12.3556 7.61596 10.748 9.08722C9.14042 10.5585 8.33661 12.4841 8.33661 14.8641V14.9939H0V14.8641Z"/>
    </symbol>

    <symbol id="number-3" viewBox="0 0 35 48">
      <path
        d="M11.354 26.5822V20.2455H17.0471C19.4193 20.2455 21.3494 19.6119 22.8373 18.3446C24.3253 17.0561 25.0693 15.3875 25.0693 13.3386C25.0693 11.3109 24.3361 9.69505 22.8697 8.49109C21.4248 7.26601 19.484 6.65347 17.0471 6.65347C14.6319 6.65347 12.6694 7.27657 11.1599 8.52277C9.6719 9.76898 8.85243 11.4693 8.70148 13.6238H0.90573C1.12138 9.42046 2.69563 6.10429 5.62847 3.67525C8.56131 1.22508 12.4538 0 17.3059 0C21.8346 0 25.5977 1.16172 28.5952 3.48515C31.6143 5.78746 33.1238 8.69175 33.1238 12.198C33.1238 14.8805 32.3583 17.1723 30.8272 19.0733C29.3176 20.9743 27.2689 22.1888 24.6811 22.7168V23.2554C27.8728 23.6145 30.3851 24.7868 32.2181 26.7723C34.0727 28.7578 35 31.2713 35 34.3129C35 38.2416 33.3179 41.505 29.9538 44.103C26.6112 46.701 22.406 48 17.3383 48C12.3136 48 8.21627 46.7432 5.04621 44.2297C1.89772 41.7162 0.21565 38.3683 0 34.1861H7.98983C8.16235 36.2984 9.10043 37.9881 10.8041 39.2554C12.5077 40.5017 14.7073 41.1248 17.403 41.1248C20.077 41.1248 22.2551 40.4488 23.9372 39.097C25.6408 37.7241 26.4926 35.9604 26.4926 33.8059C26.4926 31.567 25.6624 29.8033 24.0018 28.5149C22.3413 27.2264 20.077 26.5822 17.2089 26.5822H11.354Z"/>
    </symbol>

    <symbol id="number-4" viewBox="0 0 35 48">
      <path
        d="M21.5126 48V39.052H0V31.4012C3.58035 24.2162 9.56117 13.7491 17.9425 0H29.0497V31.8004H35V39.052H29.0497V48H21.5126ZM7.29294 31.501V32H21.6347V6.98545H21.2075C16.4473 14.6584 11.8091 22.8302 7.29294 31.501Z"/>
    </symbol>

    <symbol id="number-5" viewBox="0 0 35 48">
      <path
        d="M17.2175 48C12.276 48 8.22096 46.6802 5.05223 44.0406C1.88351 41.4009 0.19943 38.0041 0 33.8499H8.04368C8.30959 35.9919 9.29566 37.7228 11.0019 39.0426C12.7081 40.3624 14.8022 41.0223 17.284 41.0223C20.0981 41.0223 22.3694 40.1785 24.0978 38.4909C25.8484 36.7816 26.7236 34.5314 26.7236 31.7404C26.7236 28.9493 25.8484 26.6883 24.0978 24.9574C22.3694 23.2049 20.1203 22.3286 17.3504 22.3286C15.4004 22.3286 13.661 22.7289 12.132 23.5294C10.6252 24.33 9.42862 25.4659 8.54226 26.9371H0.764482L3.25736 0H32.1415V7.07505H9.90503L8.74169 20.2191H9.30674C11.5226 17.2982 14.9019 15.8377 19.4444 15.8377C23.987 15.8377 27.7097 17.309 30.6125 20.2515C33.5375 23.194 35 26.9588 35 31.5456C35 36.4354 33.3602 40.4057 30.0807 43.4564C26.8234 46.4855 22.5356 48 17.2175 48Z"/>
    </symbol>

    <symbol id="number-6" viewBox="0 0 35 48">
      <path
        d="M18.1447 48C14.8113 48 11.8658 47.2285 9.30818 45.6856C6.75052 44.1427 4.71698 41.9022 3.20755 38.9643C1.06918 35.1598 0 30.3408 0 24.5073C0 16.8137 1.61426 10.8111 4.84277 6.49934C8.09224 2.16645 12.6101 0 18.3962 0C22.5262 0 26.0482 1.14135 28.9623 3.42404C31.8973 5.6856 33.7002 8.69749 34.3711 12.4597H26.2579C25.7547 10.7266 24.7904 9.36328 23.3648 8.36988C21.9602 7.35535 20.283 6.84808 18.3333 6.84808C15.021 6.84808 12.4319 8.32761 10.566 11.2867C8.70021 14.2246 7.7673 18.3144 7.7673 23.5561H8.30189C9.37107 21.3791 10.9329 19.6988 12.9874 18.5152C15.0419 17.3104 17.4004 16.7081 20.0629 16.7081C24.3816 16.7081 27.9455 18.1453 30.7547 21.0198C33.5849 23.8943 35 27.5297 35 31.926C35 36.6394 33.4172 40.4967 30.2516 43.498C27.1069 46.4993 23.0713 48 18.1447 48ZM18.0503 41.1836C20.608 41.1836 22.7463 40.3276 24.4654 38.6156C26.1845 36.8824 27.044 34.7371 27.044 32.1797C27.044 29.5588 26.2055 27.4135 24.5283 25.7437C22.8512 24.0528 20.7128 23.2074 18.1132 23.2074C15.5136 23.2074 13.3648 24.0423 11.6667 25.712C9.96855 27.3818 9.1195 29.4954 9.1195 32.0528C9.1195 34.6526 9.96855 36.8296 11.6667 38.5839C13.3857 40.317 15.5136 41.1836 18.0503 41.1836Z"/>
    </symbol>

    <symbol id="number-7" viewBox="0 0 35 48">
      <path d="M4.07869 48L25.9363 7.75052V7.2183H0V0H35V7.31809L13.491 48H4.07869Z"/>
    </symbol>

    <symbol id="number-8" viewBox="0 0 35 48">
      <path
        d="M17.4688 48C12.3021 48 8.09375 46.7644 4.84375 44.2931C1.61458 41.8007 0 38.5795 0 34.6297C0 31.736 0.885417 29.233 2.65625 27.1208C4.42708 24.9875 6.79167 23.604 9.75 22.9703V22.4317C7.35417 21.8403 5.42708 20.6363 3.96875 18.8198C2.53125 16.9822 1.8125 14.8383 1.8125 12.3881C1.8125 8.77624 3.28125 5.80858 6.21875 3.48515C9.15625 1.16172 12.9167 0 17.5 0C22.0833 0 25.8333 1.16172 28.75 3.48515C31.6875 5.80858 33.1562 8.77624 33.1562 12.3881C33.1562 14.8383 32.4375 16.9716 31 18.7881C29.5833 20.6046 27.6667 21.8191 25.25 22.4317V22.9703C28.1875 23.5195 30.5417 24.8607 32.3125 26.9941C34.1042 29.1063 35 31.6409 35 34.598C35 38.569 33.375 41.8007 30.125 44.2931C26.8958 46.7644 22.6771 48 17.4688 48ZM17.5 41.6317C20.2083 41.6317 22.4062 40.9241 24.0938 39.5089C25.8021 38.0726 26.6562 36.2139 26.6562 33.9327C26.6562 31.6515 25.8021 29.8033 24.0938 28.3881C22.4062 26.9518 20.2083 26.2337 17.5 26.2337C14.7708 26.2337 12.5521 26.9518 10.8438 28.3881C9.15625 29.8033 8.3125 31.6515 8.3125 33.9327C8.3125 36.2139 9.15625 38.0726 10.8438 39.5089C12.5521 40.9241 14.7708 41.6317 17.5 41.6317ZM11.9062 18.0911C13.3438 19.3373 15.2083 19.9604 17.5 19.9604C19.7917 19.9604 21.6458 19.3373 23.0625 18.0911C24.5 16.8238 25.2188 15.1868 25.2188 13.1802C25.2188 11.1314 24.5 9.47327 23.0625 8.20594C21.6458 6.91749 19.7917 6.27327 17.5 6.27327C15.1875 6.27327 13.3125 6.91749 11.875 8.20594C10.4583 9.47327 9.75 11.1314 9.75 13.1802C9.75 15.1868 10.4688 16.8238 11.9062 18.0911Z"/>
    </symbol>

    <symbol id="number-9" viewBox="0 0 35 48">
      <path
        d="M16.6038 48C12.4528 48 8.92034 46.8692 6.00629 44.6077C3.09224 42.325 1.29979 39.3025 0.628931 35.5403H8.71069C9.2348 37.2734 10.1992 38.6473 11.6038 39.6618C13.0294 40.6552 14.717 41.1519 16.6667 41.1519C19.979 41.1519 22.5681 39.683 24.434 36.745C26.2998 33.786 27.2327 29.6856 27.2327 24.4439H26.6981C25.6289 26.6209 24.0671 28.3118 22.0126 29.5165C19.9581 30.7001 17.5996 31.2919 14.9371 31.2919C10.6184 31.2919 7.04403 29.8547 4.21384 26.9802C1.40461 24.1057 0 20.4703 0 16.074C0 11.3818 1.57233 7.53501 4.71698 4.53369C7.8826 1.51123 11.9287 0 16.8553 0C20.1677 0 23.1027 0.771466 25.6604 2.3144C28.218 3.85733 30.2621 6.09775 31.7925 9.03567C33.9308 12.8613 35 17.6803 35 23.4927C35 31.1863 33.3753 37.1995 30.1258 41.5324C26.8763 45.8441 22.369 48 16.6038 48ZM10.4717 22.288C12.1488 23.9577 14.2872 24.7926 16.8868 24.7926C19.4864 24.7926 21.6352 23.9577 23.3333 22.288C25.0314 20.6182 25.8805 18.5046 25.8805 15.9472C25.8805 13.3686 25.021 11.2021 23.3019 9.44782C21.5828 7.69353 19.4549 6.81638 16.9182 6.81638C14.3816 6.81638 12.2537 7.68296 10.5346 9.41612C8.81551 11.1281 7.95598 13.2629 7.95598 15.8203C7.95598 18.4412 8.79455 20.5971 10.4717 22.288Z"/>
    </symbol>
  </defs>
</svg>
